<svg width="111" height="126" viewBox="0 0 111 126" fill="none" xmlns="http://www.w3.org/2000/svg">
<path d="M10.054 112.771L0 0H110.48L100.416 112.754L55.173 125.297L10.054 112.771Z" fill="#1572B6"/>
<path d="M55.2412 115.711L91.8002 105.575L100.401 9.2207H55.2412V115.711Z" fill="#33A9DC"/>
<path d="M55.2412 50.077H73.5432L74.8072 35.914H55.2412V22.083H89.9232L86.1912 63.908H55.2412V50.077Z" fill="white"/>
<path d="M55.3232 85.9972L55.2622 86.0152L39.8592 81.8562L38.8742 70.8252H24.9922L26.9292 92.5422L55.2602 100.405L55.3232 100.387V85.9972Z" fill="#EBEBEB"/>
<path d="M72.3672 63.3234L70.7012 81.8454L55.2752 86.0094V100.399L83.6292 92.5414L86.2432 63.3234H72.3672Z" fill="white"/>
<path d="M55.2881 22.083V35.914H21.8801L20.6421 22.083H55.2881ZM55.2411 50.079V63.91H40.0321L39.1241 53.79L38.7941 50.079H55.2411Z" fill="#EBEBEB"/>
</svg>
