<svg width="126" height="126" viewBox="0 0 126 126" fill="none" xmlns="http://www.w3.org/2000/svg">
<path d="M0 0H125.184V125.185H0V0Z" fill="#F0DB4F"/>
<path d="M114.939 95.328C114.022 89.617 110.298 84.82 99.267 80.347C95.435 78.586 91.163 77.325 89.89 74.421C89.438 72.731 89.378 71.779 89.664 70.756C90.485 67.436 94.448 66.401 97.589 67.353C99.612 68.031 101.527 69.59 102.682 72.077C108.084 68.579 108.073 68.602 111.845 66.198C110.464 64.057 109.727 63.069 108.823 62.153C105.574 58.524 101.147 56.655 94.067 56.798L90.379 57.275C86.845 58.168 83.477 60.023 81.502 62.51C75.576 69.234 77.266 81.002 84.477 85.845C91.581 91.177 102.017 92.39 103.35 97.376C104.647 103.48 98.864 105.456 93.116 104.754C88.88 103.873 86.524 101.72 83.977 97.805C79.289 100.518 79.289 100.518 74.469 103.29C75.612 105.789 76.813 106.92 78.729 109.085C87.797 118.283 110.489 117.831 114.559 103.909C114.724 103.431 115.82 100.243 114.939 95.328ZM68.054 57.535H56.345L56.297 87.807C56.297 94.245 56.63 100.147 55.583 101.956C53.87 105.514 49.431 105.073 47.408 104.383C45.349 103.371 44.302 101.932 43.089 99.898C42.756 99.314 42.506 98.862 42.422 98.827L32.902 104.657C34.485 107.906 36.817 110.726 39.804 112.558C44.266 115.236 50.263 116.057 56.535 114.617C60.617 113.428 64.139 110.965 65.983 107.216C68.649 102.301 68.077 96.352 68.053 89.772C68.113 79.037 68.054 68.304 68.054 57.535Z" fill="#323330"/>
</svg>
