<svg width="128" height="77" viewBox="0 0 128 77" fill="none" xmlns="http://www.w3.org/2000/svg">
<path d="M64 0C46.933 0 36.27 8.53 32 25.597C38.398 17.066 45.867 13.867 54.398 16C59.269 17.214 62.75 20.746 66.605 24.66C72.879 31.027 80.141 38.398 96 38.398C113.066 38.398 123.73 29.867 128 12.796C121.601 21.332 114.133 24.531 105.601 22.398C100.731 21.183 97.254 17.652 93.394 13.738C87.124 7.371 79.864 0 64 0ZM32 38.398C14.934 38.398 4.27 46.929 0 64C6.398 55.464 13.866 52.265 22.398 54.398C27.269 55.613 30.75 59.144 34.605 63.058C40.879 69.425 48.141 76.796 64 76.796C81.066 76.796 91.73 68.266 96 51.199C89.601 59.73 82.133 62.929 73.601 60.796C68.731 59.582 65.254 56.05 61.394 52.136C55.124 45.769 47.864 38.398 32 38.398Z" fill="#38B2AC"/>
</svg>
